HIERARCHY
ROOT Hips
{
	OFFSET 0.00000 0.00000 0.00000
	CHANNELS 6 Xposition Yposition Zposition Yrotation Zrotation Xrotation 
	JOINT Lumbar
	{
		OFFSET 0 0 0
		CHANNELS 3 Zrotation Xrotation Yrotation
		JOINT Neck
		{
			OFFSET 0.00 0.2701 0.00
			CHANNELS 3 Zrotation Xrotation Yrotation
			End Site
			{
				OFFSET 0.00 0.1379 0.00
			}
		}
		JOINT RightShoulder
		{
			OFFSET 0.0119 0.2289 0.1181
			CHANNELS 3 Zrotation Xrotation Yrotation
			JOINT RightElbow
			{
				OFFSET 0.00 -0.1475 0.00
				CHANNELS 2 Zrotation Yrotation
				JOINT RightWrist
				{
					OFFSET 0.00 -0.1605 0.00
					CHANNELS 2 Zrotation Xrotation
					End Site
					{
						OFFSET 0.0040 -0.1068 0.0006
					}
				}
			}
		}
		JOINT LeftShoulder
		{
			OFFSET 0.0119 0.2289 -0.1181
			CHANNELS 3 Zrotation Xrotation Yrotation
			JOINT LeftElbow
			{
				OFFSET 0.00 -0.1475 0.00
				CHANNELS 2 Zrotation Yrotation
				JOINT LeftWrist
				{
					OFFSET 0.00 -0.1605 0.00
					CHANNELS 2 Zrotation Xrotation
					End Site
					{
						OFFSET 0.0040 -0.1068 -0.0006
					}
				}
			}
		}
	}
	JOINT RightHip
	{
		OFFSET 0.0316 -0.0424 0.0458
		CHANNELS 3 Zrotation Xrotation Yrotation
		JOINT RightKnee
		{
			OFFSET 0.00 -0.2438 0.00
			CHANNELS 1 Zrotation
			JOINT RightAnkle
			{
				OFFSET 0.00 -0.2449 0.00
				CHANNELS 3 Zrotation Xrotation Yrotation
				End Site
				{
					OFFSET 0.1237 -0.0542 0.0051
				}
			}
		}
	}
	JOINT LeftHip
	{
		OFFSET 0.0316 -0.0424 -0.0458
		CHANNELS 3 Zrotation Xrotation Yrotation
		JOINT LeftKnee
		{
			OFFSET 0.00 -0.2438 0.00
			CHANNELS 1 Zrotation
			JOINT LeftAnkle
			{
				OFFSET 0.00 -0.2449 0.00
				CHANNELS 3 Zrotation Xrotation Yrotation
				End Site
				{
					OFFSET 0.1237 -0.0542 -0.0051
				}
			}
		}
	}
}
MOTION
Frames: 33
Frame Time: 0.02
-0.98074 -0.06612 0.40582 534.93566 -40.11432 3.42444 0.31747 13.21102 -8.97035 -42.65399 -17.41453 -0.83078 19.7096 -26.42562 13.73591 59.07077 47.19425 8.84515 -13.01594 20.93132 23.30794 -18.67957 21.55399 -82.57413 1.08224 5.72806 74.73359 -19.0379 7.01805 -61.63277 -7.14298 -4.54015 -3.07925 74.04254 6.9646 13.74079 -69.16623 -6.27719 4.32643 2.90253
-0.97403 -0.07286 0.4054 535.85654 -39.92565 3.26919 -0.5659 12.82017 -8.30986 -43.33591 -16.19068 -0.83078 19.66669 -25.91336 13.54883 57.36299 45.19679 9.64914 -13.19337 20.74024 23.54322 -16.29245 21.14199 -82.58506 0.61357 5.72712 76.46176 -18.92825 7.58258 -64.40894 -7.14356 -4.59992 -3.11222 76.09232 7.42679 13.42831 -71.71322 -6.18715 4.23603 2.84877
-0.96748 -0.07932 0.40475 536.688 -39.73855 3.15033 -1.38831 12.38103 -7.62499 -44.05574 -15.14091 -0.83078 19.47403 -25.49614 13.18725 55.47901 44.5989 10.18843 -13.06288 20.53986 23.77081 -13.82125 20.71091 -82.60582 0.23855 5.66158 78.09607 -18.84826 8.07986 -66.90359 -7.16016 -4.63902 -3.13336 78.03634 7.74037 12.99179 -73.98051 -6.13762 4.16162 2.80689
-0.96088 -0.08595 0.40421 537.55822 -39.52661 3.01534 -2.23073 11.96968 -6.95923 -44.76221 -14.01814 -0.83078 19.3082 -25.04061 12.88384 53.7021 43.41615 10.82126 -13.07197 20.32637 23.99473 -11.41774 20.30254 -82.62116 -0.17076 5.61951 79.74519 -18.75848 8.6094 -69.52096 -7.17104 -4.68807 -3.16034 80.00519 8.09671 12.59628 -76.37421 -6.07119 4.08263 2.76114
-0.95416 -0.09244 0.40363 538.43936 -39.41668 2.87663 -3.10645 11.53102 -6.26021 -45.45124 -12.85636 -0.83078 19.31158 -24.56477 12.66544 51.79455 41.95993 11.57385 -13.08613 20.18442 24.25044 -8.86169 19.82358 -82.63959 -0.63063 5.60198 81.50996 -18.65269 9.12703 -72.16023 -7.1803 -4.73853 -3.1878 82.0762 8.56011 12.26782 -78.77714 -5.99818 3.9917 2.70861
-0.94775 -0.09913 0.40308 539.27305 -39.09229 2.75423 -3.89636 11.13839 -5.62449 -46.18561 -11.82128 -0.83078 18.92957 -24.1521 12.23112 50.11927 41.42917 12.01227 -13.01636 19.89017 24.43604 -6.61578 19.49283 -82.65415 -0.95743 5.52134 83.00844 -18.58597 9.65494 -74.68482 -7.19489 -4.77975 -3.21055 83.90352 8.76807 11.77259 -81.09046 -5.94847 3.92941 2.67299
-0.94214 -0.10648 0.40267 540.02589 -38.20325 2.67895 -4.4843 10.8895 -5.1689 -47.04123 -11.10607 -0.83078 17.50994 -23.91035 11.2309 49.1834 43.09299 11.63827 -12.77542 19.19889 24.44725 -5.22721 19.56031 -82.65805 -0.93485 5.24389 83.84064 -18.6397 10.23133 -76.98753 -7.21929 -4.79968 -3.22278 85.13386 8.25962 10.80767 -83.24221 -5.95469 3.94546 2.68324
-0.93686 -0.11403 0.40231 540.72855 -37.09331 2.61743 -4.98415 10.68807 -4.7779 -47.9405 -10.51239 -0.83078 15.70994 -23.72552 10.02197 48.48051 45.64966 10.95802 -12.46219 18.35132 24.38435 -4.16093 19.78265 -82.658 -0.78112 4.9128 84.39962 -18.72918 10.81967 -79.1789 -7.2479 -4.81054 -3.23035 86.11222 7.50673 9.68564 -85.30841 -5.9828 3.98933 2.70981
-0.93145 -0.12148 0.40194 541.43581 -36.06678 2.54257 -5.51161 10.46225 -4.35757 -48.81639 -9.85644 -0.83078 14.09138 -23.50176 8.9174 47.63763 47.8197 10.42312 -12.19167 17.56181 24.34478 -2.96387 19.94483 -82.65755 -0.6871 4.6297 85.05537 -18.78851 11.40193 -81.40617 -7.27461 -4.82566 -3.24006 87.1747 6.8964 8.66078 -87.40309 -5.99992 4.01843 2.72757
-0.92594 -0.12897 0.40151 542.21757 -35.11263 2.49796 -6.09035 10.24684 -3.93617 -49.70812 -9.23465 -0.83078 12.4318 -23.33597 7.76734 46.93089 49.96341 9.85272 -11.87096 16.82629 24.3511 -1.6977 20.06001 -82.66426 -0.58579 4.24077 85.82656 -18.90407 11.98777 -83.69052 -7.30222 -4.83989 -3.24953 88.36654 6.14976 7.52339 -89.53656 -6.02265 4.05688 2.75148
-0.92073 -0.1364 0.40121 542.83245 -33.95436 2.39424 -6.54096 10.02136 -3.53282 -50.57727 -8.57009 -0.83078 10.76872 -23.06228 6.66374 45.99994 52.34766 9.28737 -11.63904 15.94178 24.24127 -0.65255 20.31394 -82.65804 -0.47455 4.06532 86.28972 -18.91498 12.56578 -85.8271 -7.32836 -4.85364 -3.25826 89.22452 5.62885 6.58406 -91.56683 -6.03859 4.08248 2.76646
-0.91624 -0.1438 0.40118 543.00731 -32.29464 2.11445 -6.66882 9.75971 -3.16283 -51.36655 -7.74349 -0.83078 9.19411 -22.47197 5.74947 44.38297 55.24408 8.80807 -11.6939 14.68082 23.85523 -0.14741 20.88216 -82.60302 -0.33053 4.44681 86.00325 -18.58979 13.15532 -87.63606 -7.35232 -4.87222 -3.2684 89.27372 5.80969 6.23627 -93.38264 -6.02844 4.06392 2.75134
-0.91206 -0.15111 0.40126 543.01492 -30.43611 1.77629 -6.6686 9.48607 -2.80938 -52.13123 -6.87215 -0.83078 7.62858 -21.77181 4.8885 42.5369 58.33183 8.34623 -11.83818 13.27635 23.35023 0.14667 21.59115 -82.54596 -0.19152 5.05142 85.41034 -18.16445 13.73057 -89.29133 -7.37409 -4.89006 -3.27761 88.98683 6.22368 6.09298 -95.08944 -6.01088 4.03169 2.72687
-0.90779 -0.15836 0.40131 543.09387 -28.66259 1.47085 -6.72202 9.21586 -2.44851 -52.91329 -6.02895 -0.83078 6.05682 -21.12423 3.99709 40.80091 61.28237 7.87957 -11.92669 11.93933 22.88208 0.54359 22.25537 -82.48855 -0.07133 5.58724 84.93586 -17.81083 14.28856 -90.98391 -7.39478 -4.90565 -3.28569 88.82021 6.51908 5.85227 -96.81535 -5.99778 4.00689 2.7076
-0.90331 -0.16605 0.4013 543.19031 -26.90176 1.13971 -6.79455 8.95521 -2.08807 -53.67668 -5.15441 -0.83078 4.48208 -20.4663 3.12327 39.04046 64.47984 7.38894 -12.07427 10.58592 22.4829 0.90363 22.8415 -82.40256 0.1551 5.99344 84.53975 -17.35046 14.94563 -92.81108 -7.42411 -4.93153 -3.29995 88.7806 6.85801 5.62372 -98.6676 -5.9808 3.97809 2.68499
-0.89936 -0.17278 0.40143 543.21175 -25.07285 0.84815 -6.79434 8.67194 -1.7316 -54.46507 -4.3363 -0.83078 2.91879 -19.80456 2.22981 37.28266 67.19323 6.95636 -12.12369 9.23652 21.91415 1.29012 23.62468 -82.41811 0.14159 6.71078 83.9112 -17.08487 15.39477 -94.3213 -7.4352 -4.93628 -3.30143 88.40147 7.16632 5.42197 -100.2307 -5.96991 3.95384 2.66679
-0.89675 -0.17694 0.40195 543.06325 -23.08306 0.67907 -6.65639 8.32257 -1.36726 -55.39181 -3.65567 -0.83078 1.40435 -19.14687 1.25858 35.51097 68.53631 6.6845 -11.8583 7.91726 20.89671 1.83723 24.89302 -82.32888 -0.39149 8.34071 82.71787 -17.41068 15.25533 -95.00839 -7.39343 -4.87972 -3.26578 87.15579 7.32095 5.23135 -101.03358 -5.9771 3.94695 2.66386
-0.89469 -0.18013 0.4026 542.846 -21.03715 0.55184 -6.44409 7.95194 -1.00925 -56.3322 -3.03855 -0.83078 -0.09959 -18.49162 0.27008 33.76428 69.37224 6.47271 -11.49576 6.61049 19.71629 2.41089 26.35963 -82.39815 -1.18747 10.25623 81.30281 -17.93078 14.9099 -95.37983 -7.33386 -4.80249 -3.21768 85.58418 7.43967 5.06312 -101.54773 -5.99073 3.94476 2.6655
-0.8924 -0.18372 0.40318 542.66295 -19.03167 0.40627 -6.24555 7.59501 -0.65715 -57.22499 -2.4105 -0.83078 -1.62037 -17.84245 -0.70423 32.05423 70.43502 6.22998 -11.19214 5.30969 18.61532 2.95335 27.74946 -82.66788 -1.96373 11.97034 79.9885 -18.34224 14.67115 -95.88669 -7.28447 -4.73687 -3.17669 84.16947 7.58467 4.89476 -102.18673 -6.00157 3.9393 2.6644
-0.89001 -0.18747 0.40382 542.46154 -16.95446 0.25634 -6.12737 7.22029 -0.26673 -58.29297 -1.70386 -0.83078 -3.09414 -17.15723 -1.70897 30.12901 71.54615 5.99671 -10.82826 3.95577 17.48159 3.57834 29.08382 -81.85204 -2.34164 13.99429 78.66084 -18.8345 14.37894 -96.42145 -7.2264 -4.66206 -3.12967 82.7026 7.69781 4.69398 -102.84797 -6.01134 3.93801 2.66564
-0.88798 -0.19066 0.40435 542.28423 -15.01799 0.12555 -5.82541 6.87819 0.04027 -58.99807 -1.17829 -0.83078 -4.65836 -16.5515 -2.64833 28.66671 72.40124 5.76576 -10.56688 2.71587 16.38626 4.02885 30.58424 -83.25352 -3.58317 15.43817 77.31557 -19.20792 14.14661 -96.82589 -7.18193 -4.60124 -3.09209 81.2754 7.86301 4.55968 -103.39674 -6.02528 3.92953 2.66336
-0.8868 -0.19254 0.40457 542.1908 -13.4681 0.04352 -5.03934 6.62726 0.13869 -58.71049 -1.12308 -0.83078 -6.51534 -16.14523 -3.45855 28.42864 72.95227 5.45835 -10.60166 1.80287 15.3758 4.09237 32.44684 -91.45144 -7.39305 15.20723 75.9507 -19.188 14.15396 -96.94195 -7.18197 -4.58646 -3.08518 80.00561 8.20451 4.63527 -103.69745 -6.04648 3.898 2.64912
-0.88597 -0.19388 0.40466 542.12444 -12.06599 -0.02136 -4.0712 6.41063 0.14974 -58.05495 -1.25091 -0.83078 -8.4545 -15.82347 -4.19073 28.66622 73.2138 5.1636 -10.74452 1.00303 14.42204 3.9617 34.47661 -101.75154 -12.01887 14.3831 74.58246 -19.0451 14.22474 -96.93949 -7.19591 -4.58606 -3.08793 78.79505 8.59468 4.77043 -103.89696 -6.07226 3.85943 2.63139
-0.88498 -0.19546 0.40479 542.04663 -10.60732 -0.09807 -3.18286 6.18112 0.18754 -57.55972 -1.30419 -0.83078 -10.33163 -15.47578 -4.92435 28.71792 73.41909 4.90806 -10.8444 0.14104 13.48241 3.85444 36.4622 -110.61034 -16.10577 13.83027 73.23335 -18.9712 14.25023 -96.99604 -7.20172 -4.57753 -3.08524 77.57954 8.94501 4.85597 -104.14877 -6.09767 3.82558 2.61607
-0.88402 -0.19701 0.40499 541.96404 -9.10087 -0.15709 -2.30168 5.93976 0.27961 -57.09428 -1.32256 -0.83078 -12.31942 -15.07374 -5.80841 28.64029 74.38406 4.46594 -10.91491 -0.67914 12.36682 4.0212 38.32604 -121.48853 -20.90263 13.2763 71.80031 -18.8506 14.33605 -97.02028 -7.21429 -4.57493 -3.08649 76.25816 9.36642 5.03604 -104.36406 -6.11581 3.78579 2.59755
-0.88307 -0.19852 0.40502 541.89708 -7.73097 -0.24843 -1.36657 5.73111 0.23824 -56.47904 -1.45708 -0.83078 -14.08781 -14.8071 -6.35259 28.94746 73.72418 4.41322 -11.07363 -1.55493 11.63554 3.57142 40.47372 -128.70515 -24.42233 12.58508 70.54633 -18.79309 14.31644 -97.08712 -7.21666 -4.56374 -3.08205 75.17758 9.65505 5.03504 -104.63482 -6.15043 3.75625 2.58463
-0.88209 -0.20015 0.40459 541.8816 -6.69332 -0.44191 -0.29967 5.60836 -0.15316 -55.54121 -1.86116 -0.83078 -15.3032 -14.8754 -6.04327 30.17938 68.51421 5.43044 -11.44725 -2.65417 11.93446 1.46188 43.42236 -124.88274 -24.11521 11.61485 69.77203 -18.9603 13.96948 -97.30821 -7.18451 -4.52484 -3.05909 74.7335 9.53643 4.50187 -105.08781 -6.22641 3.76045 2.58979
-0.88109 -0.20176 0.40398 541.87849 -5.79045 -0.66716 0.80987 5.51704 -0.67554 -54.4649 -2.37704 -0.83078 -16.28128 -15.08034 -5.38215 31.78701 61.72985 6.82896 -11.9056 -3.80657 12.62252 -1.25989 46.6392 -117.37629 -22.51073 10.53367 69.18265 -19.1906 13.51885 -97.57644 -7.14223 -4.47697 -3.03021 74.53411 9.28773 3.78759 -105.60062 -6.31921 3.77467 2.60042
-0.88007 -0.20337 0.40347 541.86031 -4.83119 -0.87229 1.88132 5.40843 -1.13567 -53.45142 -2.84512 -0.83078 -17.32032 -15.2349 -4.83877 33.23536 55.72727 8.06709 -12.32862 -4.90561 13.14409 -3.69923 49.69395 -111.83091 -21.56647 9.53174 68.51934 -19.37745 13.13067 -97.81974 -7.10667 -4.43362 -3.00441 74.23335 9.11791 3.16766 -106.08496 -6.40649 3.78166 2.60727
-0.87916 -0.20502 0.40292 541.88296 -3.85434 -1.10052 3.03749 5.31234 -1.60924 -52.42615 -3.30544 -0.83078 -18.56055 -15.34348 -4.47066 34.64792 49.33892 9.29338 -12.74689 -6.11942 13.62256 -6.1661 52.9237 -105.1604 -20.3581 8.38867 67.8109 -19.62192 12.68097 -98.07359 -7.06281 -4.38893 -2.97734 73.89246 8.86751 2.49899 -106.57177 -6.48562 3.79906 2.61914
-0.87803 -0.20658 0.40239 541.82312 -2.94694 -1.28873 4.02577 5.19892 -2.08618 -51.39656 -3.80794 -0.83078 -19.32383 -15.57847 -3.65486 36.22304 43.50376 10.5819 -13.18758 -7.114 14.28405 -8.71465 55.85132 -99.91552 -19.37427 7.51957 67.24317 -19.76372 12.33256 -98.31816 -7.03346 -4.34465 -2.95131 73.69315 8.75194 1.88803 -107.06805 -6.58481 3.79807 2.6223
-0.87628 -0.20792 0.40194 541.53257 -2.17473 -1.35607 4.53185 5.01532 -2.52787 -50.39786 -4.38318 -0.83078 -18.83147 -16.1341 -1.69039 38.10841 38.52368 12.41733 -13.72358 -7.44209 15.34154 -11.36901 57.86832 -99.63187 -19.38156 7.4483 66.99614 -19.59974 12.30154 -98.52692 -7.04806 -4.30437 -2.93018 73.81973 9.05307 1.48084 -107.58461 -6.7428 3.73694 2.59664
-0.87432 -0.20916 0.40151 541.15842 -1.47155 -1.38263 4.86808 4.81596 -2.97025 -49.40014 -4.99935 -0.83078 -17.86644 -16.81025 0.71181 40.14933 34.3289 14.22628 -14.26959 -7.55762 16.57138 -14.07628 59.57183 -100.87641 -19.64534 7.65693 66.88851 -19.33193 12.37346 -98.72489 -7.07727 -4.26463 -2.91015 74.08081 9.49185 1.13781 -108.10743 -6.91903 3.65828 2.56266
